<svg version="1.1" id="Layer_1" xmlns="http://www.w3.org/2000/svg" xmlns:xlink="http://www.w3.org/1999/xlink" x="0px" y="0px" viewBox="-0.2 0 103.5 130.9" preserveAspectRatio="xMaxYMin meet" xml:space="preserve"
	>
<path d="M102.9,0h-5.5c-4.3,11.4-9.3,23.2-9.3,23.2l-0.3-0.1c0,0,0.3-12.2,0.4-23.2h-9L77.5,35c0,0-4,4.9-10.9,12.5l-0.3-0.2
	c-0.5-3-6.2-33.7-6.2-33.7L61.2,0H50l-0.5,15l-3.8,16.8l-0.3,0.1L43.5,16l0.2-16h-8.5l-3.7,23l1.2,22L32.1,45
	c0,0-24.6-43.3-25.2-45.1H0l36.6,78.5l1.7,26.9l6.5,26.1h35.9l-6.7-25v-0.1l17.6-39.3l0.1-0.3l-2.1-32.1L102.9,0z M56.7,71.5
	l-8.5-20l4.5-22.9l0.5,0.1l3.1,26.6l0.6,16.2L56.7,71.5z M78.1,62.3l-5.3,18.8l-0.2,0.2l-4.1-2.7l-0.1-0.4l2.7-21.6l7.4-11.2
	c0,0,0.3,0.1,0.4,0.1L78.1,62.3z"/>
</svg>
