<svg version="1.1" xmlns="http://www.w3.org/2000/svg" xmlns:xlink="http://www.w3.org/1999/xlink" viewBox="0 0 237.8 304.1" style="enable-background:new 0 0 237.8 304.1;" xml:space="preserve">
	<path class="st24" d="M237.8,0l-12.7,0c-10,26.4-20.5,54-20.5,54l-2.1-0.5c0,0,1.1-28.1,1.2-53.5H183c0,0-5.1,45.2-3.7,81
		c0,0-9.3,11.3-25.3,28.9l-0.8-0.4c-1.1-6.9-8.1-52.8-13-73.1C138,27.7,141.6,0,141.6,0h-26.1c0,0-1.5,21.1-1.2,34.7
		c-2.6,11.2-8.8,39-8.8,39l-1,0.4c0,0-7.3-40.7-3.5-74.1H81.2c0,0-10,53-9.3,58.7c1.9,16.5,3.7,45.3,3.7,45.3l-1.2,0.2
		c0,0-28.3-52-34.1-60.4C38.1,40.7,17.5,4.1,16.1,0H0c4.8,17.7,83.7,177.5,84.5,181.6c1,4.9,3.7,59.4,3.9,62.2
		c0.1,2.4,15.1,60.4,15.1,60.4h83c0,0-17.3-53.7-15.5-57.8c10.2-22.5,40.1-86.8,40.7-91.1c0.8-6.3-2.5-46.3-4.9-74.9
		C206.9,80.4,217.4,61.3,237.8,0z M131,165.3c0,0-19.3-43-19.4-46.3c-0.1-3.5,10.2-52.9,10.2-52.9l1.4,0.1c0,0,4.3,48.5,5.9,61.6
		c1.2,9.9,2.5,37.3,2.5,37.3L131,165.3z M180.6,144.1c-3.6,14-12.3,44.1-12.3,44.1l-10.2-6.7c0,0,5.1-48.7,6.4-50.7
		c1-1.6,17.1-25.8,17.1-25.8s0.8,0.2,0.9,0.1C182.5,105.1,181.2,141.8,180.6,144.1z"/>
</svg>
