<svg version="1.1" xmlns="http://www.w3.org/2000/svg" xmlns:xlink="http://www.w3.org/1999/xlink" viewBox="0 0 237.8 304.1" style="enable-background:new 0 0 237.8 304.1;" xml:space="preserve">
	<path d="M178.2,0h-8.4c-6.6,17.4-14.1,35.3-14.1,35.3l-0.5-0.1c0,0,0.5-18.5,0.6-35.3h-13.7l-2.4,53.3c0,0-6.1,7.4-16.6,19
		l-0.5-0.3c-0.7-4.5-9.5-51.2-9.5-51.2L114.9,0H97.8L97,22.8l-5.8,25.6l-0.5,0.1l-2.8-24.1L88.2,0h-13l-5.6,34.9l1.8,33.4l-0.8,0.1
		c0,0-37.4-65.8-38.3-68.5H21.8l55.6,119.4l2.6,40.9l9.9,39.7h54.6l-10.2-38v-0.1l26.8-59.8l0.1-0.4l-3.2-48.8L178.2,0z M108,108.7
		L95.1,78.3l6.9-34.8l0.7,0.1l4.7,40.4l0.9,24.6L108,108.7z M140.6,94.8l-8,28.6l-0.3,0.3l-6.2-4.1l-0.1-0.6l4.1-32.9l11.2-17
		c0,0,0.5,0.1,0.6,0.1L140.6,94.8z"/>
</svg>
