<?xml version="1.0" encoding="utf-8"?>
<svg version="1.1" xmlns="http://www.w3.org/2000/svg" xmlns:xlink="http://www.w3.org/1999/xlink" x="0px" y="0px"
	 viewBox="0 0 200 200" enable-background="new 0 0 200 200" xml:space="preserve">
<path d="M140.8,94.9c-2.4,9.2-8.1,29-8.1,29l-6.7-4.4c0,0,3.3-31.9,4.2-33.3c0.7-1,11.2-17,11.2-17s0.5,0.2,0.6,0.1 C142.1,69.3,141.2,93.4,140.8,94.9 M108.3,108.8c0,0-12.7-28.3-12.8-30.4c-0.1-2.3,6.7-34.7,6.7-34.7l0.9,0.1c0,0,2.8,31.9,3.9,40.4 c0.8,6.5,1.6,24.5,1.6,24.5L108.3,108.8z M178.4,0.3l-8.3,0c-6.6,17.4-13.4,35.4-13.4,35.4l-1.4-0.3c0,0,0.7-18.4,0.8-35.1h-13.6	c0,0-3.3,29.7-2.4,53.2c0,0-6.1,7.4-16.6,19l-0.5-0.3c-0.8-4.5-5.3-34.6-8.6-48c-1.4-5.7,1-23.9,1-23.9H98.1c0,0-1,13.9-0.8,22.8 c-1.7,7.3-5.8,25.6-5.8,25.6l-0.6,0.3c0,0-4.8-26.7-2.3-48.6h-13c0,0-6.6,34.8-6.1,38.5c1.2,10.8,2.4,29.7,2.4,29.7l-0.8,0.1	c0,0-18.6-34.1-22.4-39.7C47.3,27,33.8,3,32.8,0.3H22.3c3.2,11.6,55,116.5,55.5,119.2c0.7,3.2,2.5,39,2.5,40.8 c0.1,1.6,9.9,39.6,9.9,39.6h54.5c0,0-11.3-35.3-10.1-37.9c6.7-14.8,26.3-57,26.7-59.8c0.5-4.2-1.6-30.4-3.2-49.1	C158.1,53,165,40.5,178.4,0.3"/>
</svg>
