<svg version="1.1" xmlns="http://www.w3.org/2000/svg" xmlns:xlink="http://www.w3.org/1999/xlink" x="0px" y="0px" viewBox="0 0 263 65" enable-background="new 0 0 263 65" xml:space="preserve">
<g>
	<path d="M158.3,58.5c-3.5,0-5.4-3.4-5.4-7.1c0-3.9,2.2-6.8,5.4-6.8
		c3.5,0,5.4,3.4,5.4,7.1C163.7,55.5,161.6,58.5,158.3,58.5 M157.3,65c8,0,14.1-6.4,14.1-14.5c0-7.5-5.2-12.4-12.3-12.4
		c-7.9,0-13.9,6.3-13.9,14.4C145.2,59.9,150.2,65,157.3,65 M143.6,57.9h-9.9V38.4c-1,0.1-3.8,0.2-7.7,0.2v25.9h17.3
		C143.4,62.3,143.8,60,143.6,57.9L143.6,57.9z M105.9,54.5l2.8-8.9l2.6,8.9H105.9z M114.3,65l8.3-0.5l-10.1-26.3
		c-2.4,0.3-4.5,0.4-6.9,0.4l-9.9,25.9l7,0.2l1.9-5.8h8L114.3,65z M83.7,65c6.7,0,10.8-3.4,10.8-8.7c0-5.3-4.3-7.1-7-8.1
		c-2.4-1-4-1.6-4-2.8c0-1,1-1.6,2.8-1.6c2.5,0,4.6,0.9,5.6,1.7c0.9-2.2,1.3-4.7,1.4-6.2c-1.1-0.5-3.7-1.1-6.6-1.1
		c-6.5,0-10.6,3.3-10.6,8.1c0,5,4.3,6.6,6.8,7.6c2.5,1,4.1,1.6,4.1,3c0,1.3-1.5,2.1-3.8,2.1c-3.1,0-5.9-1.3-7.3-2.2
		c-0.2,2.4,0,4.7,1,7.1C78.3,64.3,80.7,65,83.7,65 M71.6,45.2v-6.7c-1,0.1-3.8,0.2-7.7,0.2v6.6l0,12.8v6.7c2.5,0.2,5,0.2,7.7-0.1
		v-6.5L71.6,45.2z M52.4,38.6v6.6l0,0h0v7.6L40.7,38.4c-1,0.1-3.1,0.1-5.5,0.1v26c2.2,0.2,4.2,0.1,6.5-0.1V49.7l12.1,15l5.2-0.3v-26
		C58.1,38.5,55.7,38.6,52.4,38.6 M30.2,45.2v-6.7c-1,0.1-3.8,0.2-7.7,0.2v6.6l0,12.8v6.7c2.5,0.2,5,0.2,7.7-0.1v-6.5L30.2,45.2z
		 M7.7,65c6.7,0,10.8-3.4,10.8-8.7c0-5.3-4.3-7.1-7-8.1c-2.4-1-4-1.6-4-2.8c0-1,1-1.6,2.8-1.6c2.5,0,4.6,0.9,5.6,1.7
		c0.9-2.2,1.3-4.7,1.4-6.2c-1.1-0.5-3.7-1.1-6.6-1.1c-6.5,0-10.6,3.3-10.6,8.1c0,5,4.3,6.6,6.8,7.6c2.5,1,4.1,1.6,4.1,3
		c0,1.3-1.5,2.1-3.8,2.1c-3.1,0-5.9-1.3-7.3-2.2c-0.2,2.4,0,4.7,1,7.1C2.2,64.3,4.6,65,7.7,65z"/>
	<path d="M250.1,20.5c-3.5,0-5.4-3.4-5.4-7.1c0-3.9,2.2-6.8,5.4-6.8
		c3.5,0,5.4,3.4,5.4,7.1C255.5,17.5,253.4,20.5,250.1,20.5 M249.1,27c8,0,14.1-6.4,14.1-14.5c0-7.5-5.2-12.4-12.3-12.4
		C243,0.1,237,6.3,237,14.5C237,21.9,242,27,249.1,27 M234.9,26.1l-3-25.5c-2.6,0-5.1-0.1-7.7-0.3l-6,16.3l-4.8-16.6
		c-2.7,0.4-5.5,0.7-8.2,0.8l-3.7,25.5c2.2,0.1,4.4,0.2,6.6,0.4l1.7-17.7l5.3,17.8c1.8,0,3.6-0.1,5.5-0.4l5.6-17l1.1,17.3
		C230,26.8,232.6,26.6,234.9,26.1z M196.9,7.2V0.4c-1,0.1-3.8,0.2-7.7,0.2v6.6l0,12.8v6.7c2.5,0.2,5,0.2,7.7-0.1V20L196.9,7.2z
		 M185.5,20h-9.9V0.4c-1,0.1-3.8,0.2-7.7,0.2v25.9h17.3C185.4,24.3,185.7,22.1,185.5,20z M147.8,16.5l2.8-8.9l2.6,8.9H147.8z
		 M156.2,27l8.3-0.5L154.4,0.2c-2.4,0.3-4.5,0.4-6.9,0.4l-9.9,25.9l7,0.2l1.9-5.8h8L156.2,27z M133.3,0.6l-5.1,17.6l-5.4-18.1
		c-2.9,0.4-5.5,0.5-8.5,0.5l9.3,25.9h7.9l9.3-25.9H133.3z M111.8,20.4h-10.1v-4.7h7.5c0.1-1.6,0.3-3.2,0.2-4.8h-7.7V6.5h9.3
		c0.1-2,0.4-4,0.3-6H94v25.9h17.5C111.6,24.5,112,22.3,111.8,20.4 M75.7,20.4c-0.8,0-1.7-0.1-2.4-0.2l0-13.4c0.5,0,1.1-0.1,1.6-0.1
		c5,0,7.5,1.9,7.5,6.5C82.5,17.6,80.2,20.4,75.7,20.4 M74.8,0.2c-2.2,0-6.5,0.2-9.1,0.4l0,25.9c2.5,0.2,6.5,0.4,8.6,0.4
		c9.8,0,16.3-6.2,16.3-14.6C90.4,4.5,84.6,0.2,74.8,0.2 M59.6,7.2V0.4c-1,0.1-3.8,0.2-7.7,0.2v6.6l0,12.8v6.7c2.5,0.2,5,0.2,7.7-0.1
		V20L59.6,7.2z M31.7,16.5l2.8-8.9l2.6,8.9H31.7z M40.1,27l8.3-0.5L38.3,0.2c-2.4,0.3-4.5,0.4-6.9,0.4l-9.9,25.9l7,0.2l1.9-5.8h8
		L40.1,27z M23.9,0.6H0.3C0.5,2.7,0.1,4.9,0,7.1h8.1v19.5c2.5,0.2,5,0.2,7.7-0.1V7.1h7.8C23.8,4.9,24.1,2.7,23.9,0.6"/>
</g>
</svg>
