<svg version="1.1" id="Layer_1" xmlns="http://www.w3.org/2000/svg" xmlns:xlink="http://www.w3.org/1999/xlink" viewBox="0 0 500 125" style="enable-background:new 0 0 500 125;" xml:space="preserve">
	<path class="st0" d="M302,113.3c-6.5,0-10.2-6.4-10.2-13.3c0-7.3,4.1-12.8,10.2-12.8c6.6,0,10.2,6.4,10.2,13.3
		C312.2,107.8,308.1,113.3,302,113.3 M300,125.6c15.1,0,26.6-12.1,26.6-27.3c0-14.1-9.8-23.4-23.2-23.4c-14.8,0-26.2,11.8-26.2,27.1
		C277.3,116,286.7,125.6,300,125.6 M274.3,112.3h-18.5V75.6c-1.9,0.1-7.1,0.3-14.5,0.3v48.7h32.5
		C273.9,120.5,274.6,116.3,274.3,112.3z M203.3,105.9l5.3-16.7l4.8,16.7H203.3z M219.1,125.5l15.6-0.9l-19-49.4
		c-4.5,0.6-8.5,0.7-13,0.7l-18.6,48.7l13.1,0.4l3.5-10.9h15.1L219.1,125.5z M161.7,125.6c12.5,0,20.3-6.4,20.3-16.4
		c0-10-8.2-13.3-13.1-15.3c-4.5-1.9-7.4-3-7.4-5.3c0-1.9,1.9-3,5.3-3c4.7,0,8.7,1.7,10.6,3.1c1.7-4.1,2.5-8.8,2.6-11.7
		c-2.2-0.9-6.9-2.1-12.3-2.1c-12.3,0-19.9,6.1-19.9,15.3c0,9.4,8,12.4,12.8,14.2c4.7,1.8,7.7,3,7.7,5.6c0,2.4-2.8,3.9-7.2,3.9
		c-5.8,0-11.1-2.4-13.6-4.1c-0.4,4.5,0.1,8.9,1.8,13.4C151.4,124.2,155.9,125.6,161.7,125.6 M138.8,88.3V75.6
		c-1.9,0.1-7.1,0.3-14.5,0.3v12.4l0,24.1v12.5c4.7,0.4,9.4,0.3,14.5-0.3v-12.3L138.8,88.3z M100.7,75.9v12.4l0,0h0v14.2L78.6,75.6
		c-1.9,0.1-5.8,0.3-10.4,0.3v49c4.1,0.4,7.9,0.3,12.3-0.3V96.9l22.8,28.2l9.7-0.5v-49C111.4,75.7,106.9,75.9,100.7,75.9 M56.8,88.3
		V75.6c-1.9,0.1-7.1,0.3-14.5,0.3v12.4l0,24.1v12.5c4.7,0.4,9.4,0.3,14.5-0.3v-12.3L56.8,88.3z M14.5,125.6
		c12.5,0,20.3-6.4,20.3-16.4c0-10-8.2-13.3-13.1-15.3c-4.5-1.9-7.4-3-7.4-5.3c0-1.9,1.9-3,5.3-3c4.7,0,8.7,1.7,10.6,3.1
		c1.7-4.1,2.5-8.8,2.6-11.7c-2.2-0.9-6.9-2.1-12.3-2.1c-12.3,0-19.9,6.1-19.9,15.3c0,9.4,8,12.4,12.8,14.2c4.7,1.8,7.7,3,7.7,5.6
		c0,2.4-2.8,3.9-7.2,3.9c-5.8,0-11.1-2.4-13.6-4.1c-0.4,4.5,0.1,8.9,1.8,13.4C4.2,124.2,8.7,125.6,14.5,125.6z"/>
	<path class="st0" d="M475.3,38c-6.5,0-10.2-6.4-10.2-13.3c0-7.3,4.1-12.8,10.2-12.8c6.6,0,10.2,6.4,10.2,13.3
		C485.5,32.4,481.4,38,475.3,38 M473.4,50.3c15.1,0,26.6-12.1,26.6-27.3c0-14.1-9.8-23.4-23.2-23.4c-14.8,0-26.2,11.8-26.2,27.1
		C450.6,40.6,460.1,50.3,473.4,50.3 M445.3,48.6l-5.7-48c-4.8,0-9.7-0.2-14.5-0.5l-11.3,30.7l-9-31.2c-5.2,0.7-10.3,1.3-15.5,1.6
		l-6.9,48c4.1,0.1,8.3,0.3,12.5,0.7l3.1-33.3l9.9,33.5c3.4,0.1,6.8-0.2,10.3-0.8l10.5-31.9l2,32.6C436,49.9,441,49.4,445.3,48.6
		 M374.5,12.9V0.3c-1.9,0.1-7.1,0.3-14.5,0.3v12.4l0,24.1v12.6c4.7,0.4,9.4,0.3,14.5-0.3V37L374.5,12.9z M353.8,37h-18.5V0.3
		c-1.9,0.1-7.1,0.3-14.5,0.3v48.7h32.5C353.5,45.2,354.2,40.9,353.8,37L353.8,37z M282.9,30.6l5.3-16.7l4.8,16.7H282.9z M298.6,50.2
		l15.6-0.9l-19-49.4c-4.5,0.6-8.5,0.7-13,0.7l-18.6,48.7l13.1,0.4l3.5-10.9h15.1L298.6,50.2z M252.1,0.6l-9.6,33.2l-10.1-34
		c-5.5,0.7-10.4,0.9-15.9,0.9L234,49.3h14.9l17.5-48.7H252.1z M214.4,37.8h-19V29h14.1c0.2-3,0.7-6.1,0.4-9h-14.5v-8.3H213
		c0.2-3.7,0.8-7.6,0.5-11.2H181v48.7h32.9C214.1,45.5,214.8,41.5,214.4,37.8 M145.1,37.9c-1.5,0-3.1-0.2-4.4-0.4l0-25.2
		c1-0.1,2.1-0.1,3.1-0.1c9.4,0,14.2,3.6,14.2,12.2C157.9,32.6,153.6,37.9,145.1,37.9 M143.4-0.1c-4.2,0-12.2,0.4-17.2,0.7l0,48.8
		c4.7,0.4,12.1,0.8,16.1,0.8c18.4,0,30.6-11.6,30.6-27.4C172.9,8,161.9-0.1,143.4-0.1 M114.8,12.9V0.3c-1.9,0.1-7.1,0.3-14.5,0.3
		v12.4l0,24.1v12.6c4.7,0.4,9.4,0.3,14.5-0.3V37L114.8,12.9z M62.4,30.6l5.3-16.7l4.8,16.7H62.4z M78.2,50.2l15.6-0.9l-19-49.4
		c-4.5,0.6-8.5,0.7-13,0.7L43.1,49.3l13.1,0.4l3.5-10.9h15.1L78.2,50.2z M45,0.6H0.6C1,4.5,0.2,8.8,0,12.9h15.3v36.7
		c4.7,0.4,9.4,0.3,14.5-0.3V12.9h14.7C44.7,8.8,45.4,4.5,45,0.6"/>
</svg>
